<?xml version="1.0" encoding="utf-8"?>
<!-- Generator: Adobe Illustrator 25.2.0, SVG Export Plug-In . SVG Version: 6.00 Build 0)  -->
<svg version="1.1" id="Layer_1" xmlns="http://www.w3.org/2000/svg" xmlns:xlink="http://www.w3.org/1999/xlink" x="0px" y="0px"
	 width="2247.7px" height="350px" viewBox="0 0 2247.7 350" style="enable-background:new 0 0 2247.7 350;" xml:space="preserve">
<style type="text/css">
	.st0{fill:#FFFFFF;}
</style>
<g>
	<path class="st0" d="M0,7.2h82.9l106.9,242.1h1L297.3,7.2h83.4L226.8,342.8h-73.4L0,7.2z"/>
	<path class="st0" d="M356.4,175c0-102.1,73.8-175,176.4-175s176.4,72.9,176.4,175c0,102.1-73.8,175-176.4,175
		S356.4,277.1,356.4,175z M635.9,175c0-66.2-41.7-110.8-103.1-110.8S429.8,108.8,429.8,175c0,66.2,41.7,110.7,103.1,110.7
		S635.9,241.2,635.9,175z"/>
	<path class="st0" d="M810.3,210L670.7,7.2h83.9l92.1,141.9h1L939.7,7.2h83.9L883.6,210v132.8h-73.4V210z"/>
	<path class="st0" d="M1212.6,291h-168.3l-22.1,51.8h-79.1l151-335.6h68.6l151.5,335.6h-79.6L1212.6,291z M1185.8,226.8L1129.2,93
		h-1l-56.6,133.8H1185.8z"/>
	<path class="st0" d="M1291.8,175c0-102.1,72.4-175,173.6-175c79.6,0,138.1,44.6,153.9,111.7l-68.6,17.7
		c-11.5-40.3-41.7-65.2-85.3-65.2c-59.5,0-100.2,44.6-100.2,110.8c0,66.2,40.8,110.7,100.2,110.7c51.3,0,84.4-24.4,86.3-64.2h-81
		v-57.1h152.5v41.2c0,90.1-59.9,144.3-157.7,144.3C1364.2,350,1291.8,277.1,1291.8,175z"/>
	<path class="st0" d="M1656.8,7.2h253.6v64.2h-180.3v70.5h163v60.9h-163v75.8h179.8v64.3h-253.2V7.2z"/>
	<path class="st0" d="M2162.8,218.6l82,124.2h-83.4l-77.7-121.3h-59.5v121.3h-73.4V7.2h176.9c73.4,0,119.9,41.7,119.9,106.9
		c0,54.2-31.6,92.1-84.9,103.6V218.6z M2120.6,156.8c33.6,0,53.7-15.3,53.7-43.6s-17.3-41.7-54.7-41.7h-95.4v85.3H2120.6z"/>
</g>
</svg>
